<svg xmlns="http://www.w3.org/2000/svg" viewBox="0 0 20 20" fill="none">
  <path
    d="M6.75 6.25 7.2 5h1.85l.45 1.25 1.15.5 1.2-.55 1.3 1.3-.55 1.2.5 1.15 1.25.45v1.85l-1.25.45-.5 1.15.55 1.2-1.3 1.3-1.2-.55-1.15.5-.45 1.25H7.2l-.45-1.25-1.15-.5-1.2.55-1.3-1.3.55-1.2-.5-1.15-1.25-.45V10.3l1.25-.45.5-1.15-.55-1.2 1.3-1.3 1.2.55 1.15-.5Z"
    stroke="currentColor"
    stroke-width="1.5"
    stroke-linecap="round"
    stroke-linejoin="round"
    transform="translate(-1.4 1.1)"
  />
  <circle cx="8.15" cy="11.2" r="1.8" stroke="currentColor" stroke-width="1.5" transform="translate(-1.4 1.1)" />
  <path
    d="m13.9 2.75.35 1 1 .4.95-.45 1.1 1.1-.45.95.4 1 1 .35v1.55l-1 .35-.4 1 .45.95-1.1 1.1-.95-.45-1 .4-.35 1h-1.55l-.35-1-1-.4-.95.45-1.1-1.1.45-.95-.4-1-1-.35V7.1l1-.35.4-1-.45-.95 1.1-1.1.95.45 1-.4.35-1h1.55Z"
    stroke="currentColor"
    stroke-width="1.5"
    stroke-linecap="round"
    stroke-linejoin="round"
    transform="translate(1.45 -2)"
  />
  <circle cx="13.15" cy="7.85" r="1.35" stroke="currentColor" stroke-width="1.5" transform="translate(1.45 -2)" />
</svg>
